<svg width="531" height="309" viewBox="0 0 531 309" fill="none" xmlns="http://www.w3.org/2000/svg">
<mask id="mask0_5723_150323" style="mask-type:luminance" maskUnits="userSpaceOnUse" x="0" y="0" width="531" height="309">
<path d="M530.04 0.862473H0V308.363H530.04V0.862473Z" fill="white"/>
</mask>
<g mask="url(#mask0_5723_150323)">
<path d="M502.072 186.106C483.34 234.608 448.121 277.1 399.203 295.775C392.841 298.2 386.344 300.257 379.746 301.937C344.845 310.835 306.664 307.74 274.491 291.526C260.837 284.639 248.386 275.538 234.682 268.75C220.978 261.962 205.329 257.519 190.413 260.87C177.57 263.755 166.735 272.023 155.825 279.388C130.107 296.752 99.1837 310.493 68.73 304.529C54.7169 301.788 40.9182 294.196 34.4103 281.506C20.0263 253.451 47.154 220.096 41.66 189.07C38.1444 169.212 22.0871 154.342 12.1048 136.817C-4.97874 106.842 -2.9592 67.0239 17.0712 38.9361C37.1017 10.8482 74.0797 -4.05102 107.983 2.3208C149.326 10.0939 180.583 45.0811 220.784 57.4621C245.925 65.1981 273.222 62.8901 297.234 52.7018C336.029 36.2365 389.328 10.9842 432.987 15.0974C456.204 17.2859 478.975 27.5897 494.298 45.1842C513.669 67.3949 519.477 98.9284 516.245 128.216C514.028 148.041 509.264 167.498 502.072 186.106Z" fill="url(#paint0_linear_5723_150323)"/>
<path d="M514.535 224.47C513.674 224.469 512.817 224.365 511.98 224.161C509.334 223.51 507.038 221.875 505.559 219.589C504.079 217.302 503.527 214.537 504.017 211.857C504.504 209.178 506 206.786 508.192 205.17C510.385 203.555 513.113 202.838 515.817 203.165C518.521 203.492 520.998 204.839 522.741 206.931C524.489 209.022 525.367 211.701 525.206 214.42C525.041 217.139 523.846 219.693 521.863 221.561C519.881 223.429 517.26 224.469 514.535 224.47ZM514.535 207.91C513.118 207.915 511.753 208.438 510.694 209.381C509.635 210.324 508.959 211.621 508.79 213.028C508.625 214.434 508.975 215.854 509.783 217.02C510.587 218.185 511.79 219.016 513.167 219.355C513.962 219.547 514.791 219.567 515.599 219.416C516.402 219.264 517.165 218.944 517.837 218.476C518.508 218.008 519.077 217.403 519.498 216.701C519.918 215.998 520.19 215.215 520.285 214.402C520.384 213.588 520.305 212.763 520.062 211.982C519.819 211.2 519.411 210.479 518.867 209.865C518.323 209.252 517.659 208.761 516.909 208.424C516.163 208.086 515.356 207.911 514.535 207.91Z" fill="#E7F6FF"/>
<path d="M504.78 235.807C505.385 233.301 503.848 230.776 501.338 230.169C498.832 229.561 496.31 231.1 495.7 233.606C495.094 236.113 496.631 238.637 499.137 239.245C501.647 239.852 504.17 238.313 504.78 235.807Z" fill="#E7F6FF"/>
<path d="M22.7465 223.451C19.9157 223.389 17.2235 222.213 15.2544 220.179C13.2853 218.144 12.1982 215.414 12.2292 212.583C12.2601 209.752 13.4065 207.047 15.4196 205.056C17.4327 203.064 20.15 201.948 22.9815 201.948C25.813 201.948 28.5302 203.064 30.5433 205.056C32.5564 207.047 33.7029 209.752 33.7338 212.583C33.7647 215.414 32.6776 218.144 30.7086 220.179C28.7394 222.213 26.0472 223.389 23.2164 223.451H22.7465ZM22.7465 206.895H22.5034C20.9745 206.928 19.5203 207.563 18.4567 208.662C17.393 209.761 16.8057 211.234 16.8223 212.764C16.8388 214.293 17.4579 215.754 18.5451 216.829C19.6323 217.905 21.0998 218.508 22.6291 218.508C24.1584 218.508 25.6259 217.905 26.7131 216.829C27.8003 215.754 28.4194 214.293 28.4359 212.764C28.4525 211.234 27.8652 209.761 26.8015 208.662C25.7379 207.563 24.2837 206.928 22.7548 206.895H22.7465Z" fill="#E7F6FF"/>
<path d="M15.0802 241.496C17.6568 241.384 19.6554 239.206 19.5442 236.629C19.4331 234.053 17.2543 232.054 14.6777 232.165C12.1011 232.276 10.1025 234.455 10.2136 237.032C10.3248 239.608 12.5036 241.607 15.0802 241.496Z" fill="#E7F6FF"/>
<path d="M292.247 49.602C289.681 49.6041 287.199 48.6878 285.25 47.0186C283.301 45.3494 282.014 43.0377 281.622 40.5018C281.231 37.966 281.759 35.3736 283.113 33.1939C284.467 31.0143 286.557 29.3914 289.004 28.6189C291.45 27.8465 294.093 27.9756 296.453 28.9828C298.813 29.99 300.734 31.8089 301.869 34.1101C303.004 36.4113 303.278 39.0429 302.641 41.5284C302.004 44.0141 300.498 46.1894 298.396 47.6608C296.593 48.9219 294.447 49.5995 292.247 49.602ZM292.214 33.05C290.712 33.0484 289.268 33.6263 288.182 34.6633C287.097 35.7002 286.453 37.1162 286.386 38.616C286.318 40.1158 286.832 41.5838 287.821 42.7142C288.809 43.8443 290.195 44.5495 291.691 44.6826C293.186 44.8157 294.675 44.3669 295.848 43.4288C297.02 42.4912 297.785 41.1372 297.984 39.6491C298.183 38.1609 297.799 36.6535 296.914 35.441C296.029 34.2285 294.71 33.4045 293.232 33.1406C292.896 33.0807 292.555 33.0504 292.214 33.05Z" fill="#E7F6FF"/>
<path d="M270.322 49.0151C272.434 47.5342 272.945 44.6224 271.464 42.5106C269.984 40.3992 267.072 39.8878 264.96 41.3685C262.848 42.8493 262.337 45.7612 263.818 47.873C265.299 49.9845 268.211 50.4959 270.322 49.0151Z" fill="#E7F6FF"/>
<path d="M530.023 104.995C530.023 100.463 528.222 96.1167 525.02 92.9123C521.813 89.7074 517.469 87.9071 512.936 87.9071C512.557 87.9071 512.182 87.9071 511.811 87.9442C511.835 87.5733 511.848 87.1982 511.848 86.8191C511.848 84.3907 511.328 81.9899 510.327 79.7775C509.325 77.5647 507.866 75.5909 506.041 73.9876C504.215 72.3844 502.072 71.1883 499.747 70.4794C497.427 69.7701 494.978 69.5644 492.571 69.8756C490.16 70.1872 487.848 71.0082 485.779 72.2842C483.714 73.5606 481.942 75.2628 480.586 77.277C479.23 79.2916 478.319 81.572 477.911 83.9662C477.507 86.3607 477.615 88.8143 478.233 91.1631C476.168 89.6658 473.794 88.6494 471.284 88.189C468.774 87.7287 466.194 87.8362 463.733 88.5035C461.269 89.1704 458.99 90.3804 457.052 92.0447C455.12 93.7089 453.586 95.7849 452.556 98.1202C451.53 100.456 451.039 102.991 451.122 105.541C451.204 108.091 451.855 110.59 453.03 112.856C454.2 115.121 455.866 117.095 457.902 118.632C459.938 120.17 462.291 121.232 464.793 121.74C465.815 124.447 467.505 126.851 469.71 128.726C471.91 130.6 474.556 131.885 477.392 132.459C480.224 133.033 483.162 132.878 485.919 132.009C488.677 131.139 491.17 129.582 493.165 127.486C495.205 129.026 497.563 130.088 500.068 130.595C502.574 131.102 505.159 131.041 507.636 130.417C510.117 129.792 512.421 128.619 514.387 126.985C516.353 125.351 517.923 123.297 518.99 120.974C522.234 119.744 525.024 117.558 526.998 114.703C528.968 111.849 530.023 108.463 530.023 104.995Z" fill="white"/>
<path d="M78.906 63.9205C78.9081 61.6755 78.4679 59.4519 77.6106 57.3772C76.753 55.3024 75.4951 53.4168 73.9083 51.8284C72.3219 50.24 70.438 48.9796 68.3641 48.1199C66.2906 47.2597 64.0674 46.8167 61.8224 46.8163C61.4433 46.8163 61.0682 46.8163 60.6973 46.8534C60.722 46.4824 60.7344 46.1074 60.7344 45.7282C60.734 43.2998 60.2159 40.899 59.2144 38.6864C58.2133 36.4738 56.7518 34.5 54.9276 32.8967C53.1034 31.2934 50.9582 30.0974 48.6353 29.3883C46.3125 28.6793 43.8651 28.4736 41.4565 28.7848C39.048 29.0961 36.7335 29.9172 34.6672 31.1934C32.6009 32.4697 30.8304 34.1718 29.4737 36.1861C28.117 38.2005 27.2054 40.4809 26.7994 42.8753C26.3934 45.2699 26.5026 47.7234 27.1195 50.0723C25.0543 48.5745 22.68 47.5581 20.1707 47.0982C17.6615 46.6378 15.081 46.7454 12.6187 47.4122C10.1564 48.0795 7.87466 49.2896 5.94106 50.9538C4.00746 52.6181 2.47101 54.6941 1.44446 57.0293C0.417917 59.365 -0.0726746 61.9005 0.00869499 64.4505C0.0900645 67 0.74133 69.4993 1.91469 71.7645C3.08806 74.0301 4.75374 76.0038 6.78951 77.5412C8.82528 79.0785 11.1795 80.141 13.6793 80.6496C14.701 83.3541 16.3921 85.7553 18.5944 87.6281C20.7967 89.5013 23.4383 90.7847 26.2718 91.3589C29.1052 91.933 32.038 91.7784 34.7957 90.9104C37.5533 90.0425 40.0456 88.4887 42.0393 86.3949C44.079 87.9347 46.4382 88.9972 48.9428 89.5042C51.4474 90.0116 54.0341 89.9506 56.5119 89.3253C58.9897 88.7005 61.2961 87.5279 63.2608 85.8938C65.2256 84.2596 66.7987 82.2059 67.8645 79.883C71.1065 78.656 73.8988 76.472 75.8709 73.6212C77.8431 70.7704 78.9015 67.387 78.906 63.9205Z" fill="white"/>
<path d="M393.264 307.06H147.417V301.702H393.264C393.975 301.702 394.656 301.985 395.159 302.487C395.661 302.989 395.943 303.671 395.943 304.381C395.943 305.092 395.661 305.773 395.159 306.276C394.656 306.778 393.975 307.06 393.264 307.06Z" fill="#426572"/>
<path d="M136.421 307.06H121.39C120.68 307.06 119.998 306.778 119.496 306.276C118.994 305.773 118.711 305.092 118.711 304.381C118.711 303.671 118.994 302.989 119.496 302.487C119.998 301.985 120.68 301.702 121.39 301.702H136.421C137.132 301.702 137.813 301.985 138.315 302.487C138.818 302.989 139.1 303.671 139.1 304.381C139.1 305.092 138.818 305.773 138.315 306.276C137.813 306.778 137.132 307.06 136.421 307.06Z" fill="#426572"/>
<path d="M111.635 307.06H106.845C106.135 307.06 105.454 306.778 104.951 306.276C104.449 305.773 104.167 305.092 104.167 304.381C104.167 303.671 104.449 302.989 104.951 302.487C105.454 301.985 106.135 301.702 106.845 301.702H111.635C112.345 301.702 113.026 301.985 113.529 302.487C114.031 302.989 114.314 303.671 114.314 304.381C114.314 305.092 114.031 305.773 113.529 306.276C113.026 306.778 112.345 307.06 111.635 307.06Z" fill="#426572"/>
<path d="M479.469 307.06H403.906V301.702H479.469C480.178 301.702 480.862 301.985 481.365 302.487C481.868 302.989 482.148 303.671 482.148 304.381C482.148 305.092 481.868 305.773 481.365 306.276C480.862 306.778 480.178 307.06 479.469 307.06Z" fill="#426572"/>
<path d="M93.1456 307.06H17.5781V301.702H93.1456C93.8562 301.702 94.5375 301.985 95.0399 302.487C95.5423 302.989 95.8246 303.671 95.8246 304.381C95.8246 305.092 95.5423 305.773 95.0399 306.276C94.5375 306.778 93.8562 307.06 93.1456 307.06Z" fill="#426572"/>
<path d="M104.797 97.898H405.967C406.69 97.898 407.406 98.0402 408.074 98.3168C408.742 98.5937 409.349 98.9993 409.86 99.5108C410.372 100.022 410.777 100.629 411.054 101.297C411.33 101.965 411.473 102.681 411.473 103.404V294.439H99.2908V103.404C99.2908 102.681 99.4334 101.965 99.7099 101.297C99.9865 100.629 100.392 100.022 100.904 99.5108C101.415 98.9993 102.022 98.5937 102.69 98.3168C103.358 98.0402 104.074 97.898 104.797 97.898Z" fill="#EBF0F9"/>
<path d="M400.613 111.536H111.379V276.766H400.613V111.536Z" fill="#637F91"/>
<path d="M109.219 276.458H401.845C401.845 277.77 401.324 279.028 400.397 279.955C399.469 280.883 398.211 281.404 396.899 281.404H114.165C112.853 281.404 111.596 280.883 110.668 279.955C109.74 279.028 109.219 277.77 109.219 276.458Z" fill="white"/>
<g opacity="0.5">
<path opacity="0.5" d="M197.807 110.917L154.564 277.698H132.786L176.029 110.917H197.807Z" fill="#A7BCD5"/>
<path opacity="0.5" d="M253.319 110.917L210.073 277.698H164.406L207.649 110.917H253.319Z" fill="#A7BCD5"/>
</g>
<path d="M413.934 296.912H96.8181V116.634C96.8247 111.011 99.0614 105.62 103.037 101.644C107.013 97.668 112.404 95.4313 118.027 95.4251H236.767V100.371H118.027C113.716 100.376 109.582 102.091 106.533 105.14C103.485 108.189 101.769 112.322 101.764 116.634V291.966H408.988V104.875C408.987 103.681 408.512 102.536 407.667 101.691C406.823 100.847 405.678 100.372 404.483 100.371H291.579V95.4251H404.483C406.987 95.4325 409.387 96.4308 411.158 98.2014C412.928 99.9719 413.926 102.371 413.934 104.875V296.912Z" fill="#426572"/>
<path d="M59.9182 288.542H459.2V289.828C459.2 294.091 457.506 298.18 454.493 301.194C451.476 304.209 447.388 305.902 443.126 305.902H75.992C71.7292 305.902 67.6406 304.209 64.6262 301.194C61.6117 298.18 59.9182 294.091 59.9182 289.828V288.542Z" fill="#EBF0F9"/>
<path opacity="0.5" d="M457.16 296.921C456.282 299.202 454.732 301.163 452.717 302.546C450.702 303.93 448.315 304.67 445.871 304.669H70.7702C68.3257 304.67 65.939 303.93 63.9236 302.546C61.9082 301.163 60.3597 299.202 59.4814 296.921H457.16Z" fill="#A7BCD5"/>
<path d="M441.267 307.765H74.1334C69.216 307.759 64.5019 305.804 61.025 302.327C57.5481 298.849 55.592 294.135 55.5867 289.218V285.46H459.814V289.218C459.81 294.135 457.852 298.849 454.378 302.327C450.899 305.804 446.184 307.759 441.267 307.765ZM60.586 290.401C60.8828 293.79 62.4391 296.945 64.9478 299.243C67.4566 301.541 70.7352 302.816 74.1375 302.815H441.272C444.672 302.816 447.952 301.541 450.462 299.243C452.968 296.945 454.526 293.79 454.823 290.401H60.586Z" fill="#426572"/>
<path d="M402.464 278.312H108.288V109.063H402.464V278.312ZM113.23 273.366H397.518V114.009H113.234L113.23 273.366Z" fill="#426572"/>
<path d="M451.761 151.218V196.789C451.753 197.771 451.361 198.711 450.669 199.405C449.972 200.099 449.033 200.492 448.052 200.499H367.13C366.61 200.5 366.096 200.39 365.622 200.177C364.963 199.887 364.403 199.412 364.01 198.808C363.617 198.205 363.408 197.501 363.409 196.781V151.218C363.407 150.466 363.635 149.732 364.06 149.112C364.485 148.493 365.089 148.017 365.791 147.748C366.214 147.583 366.664 147.5 367.118 147.501H448.027C448.921 147.503 449.787 147.828 450.467 148.416C451.143 149.004 451.584 149.816 451.712 150.703C451.74 150.873 451.757 151.045 451.761 151.218Z" fill="white"/>
<path d="M451.142 149.977V195.548C451.134 196.53 450.743 197.469 450.05 198.164C449.354 198.858 448.414 199.251 447.433 199.257H366.512C365.992 199.259 365.478 199.149 365.003 198.936C364.345 198.646 363.785 198.17 363.392 197.567C362.999 196.964 362.79 196.26 362.79 195.54V194.922H442.463C443.443 194.915 444.383 194.522 445.08 193.828C445.772 193.134 446.164 192.194 446.172 191.212V146.259H447.408C448.303 146.262 449.168 146.587 449.848 147.175C450.524 147.763 450.965 148.575 451.093 149.462C451.122 149.632 451.138 149.804 451.142 149.977Z" fill="#D6DEE9"/>
<path d="M447.421 202.362H366.512C365.642 202.363 364.783 202.179 363.99 201.822C362.896 201.336 361.967 200.543 361.315 199.539C360.663 198.535 360.317 197.364 360.317 196.167V150.6C360.324 149.375 360.69 148.179 361.372 147.162C362.054 146.145 363.02 145.351 364.15 144.879L364.563 144.657H364.76C365.324 144.491 365.908 144.408 366.495 144.409H447.404C448.896 144.415 450.335 144.956 451.46 145.934C452.585 146.912 453.323 148.263 453.537 149.739C453.578 150.024 453.599 150.312 453.599 150.6V196.171C453.603 197.459 453.199 198.715 452.449 199.761C451.876 200.562 451.122 201.216 450.248 201.668C449.375 202.12 448.406 202.358 447.421 202.362ZM365.77 149.607C365.613 149.721 365.485 149.872 365.398 150.045C365.309 150.218 365.263 150.41 365.263 150.604V196.171C365.263 196.413 365.333 196.65 365.466 196.852C365.598 197.054 365.787 197.213 366.009 197.309C366.167 197.38 366.338 197.417 366.512 197.416H447.421C447.619 197.415 447.817 197.367 447.994 197.275C448.171 197.182 448.319 197.048 448.435 196.884C448.583 196.675 448.666 196.424 448.666 196.167V150.6C448.67 150.548 448.67 150.496 448.666 150.443C448.624 150.143 448.48 149.867 448.253 149.666C448.023 149.465 447.734 149.354 447.429 149.351H366.512C366.396 149.351 366.281 149.368 366.17 149.401L365.77 149.607Z" fill="#426572"/>
<path d="M386.183 171.413C384.958 170.679 383.622 170.149 382.227 169.843C382.938 169.399 383.524 168.781 383.928 168.046C384.333 167.312 384.541 166.485 384.535 165.647C384.526 164.796 384.297 163.961 383.869 163.225C383.44 162.489 382.828 161.877 382.092 161.449C381.356 161.021 380.521 160.791 379.67 160.783C378.818 160.775 377.979 160.988 377.235 161.402C376.491 161.816 375.867 162.416 375.424 163.143C374.982 163.871 374.736 164.701 374.711 165.552C374.686 166.403 374.883 167.246 375.282 167.998C375.682 168.751 376.269 169.386 376.988 169.843C375.535 170.134 374.141 170.669 372.867 171.425C372.554 171.629 372.293 171.903 372.105 172.226C371.916 172.549 371.806 172.911 371.783 173.284V179.174C371.783 179.501 371.913 179.816 372.145 180.048C372.377 180.28 372.691 180.41 373.019 180.41H386.039C386.367 180.41 386.681 180.28 386.913 180.048C387.145 179.816 387.275 179.501 387.275 179.174V173.276C387.259 172.9 387.15 172.534 386.96 172.209C386.769 171.885 386.503 171.611 386.183 171.413Z" fill="#426572"/>
<path d="M438.122 155.207H394.723V160.153H438.122V155.207Z" fill="#426572"/>
<path d="M422.622 163.887H394.723V168.833H422.622V163.887Z" fill="#426572"/>
<path d="M437.504 180.938H394.723V185.884H437.504V180.938Z" fill="#426572"/>
<path d="M259.909 305.601C259.909 305.601 325.878 272.629 325.878 223.143V157.17L259.909 140.684L193.941 157.17V223.139C193.941 272.617 259.909 305.601 259.909 305.601Z" fill="#E8837E"/>
<path d="M272.987 299.526C268.748 302.322 264.369 304.9 259.868 307.25C259.868 307.25 193.899 274.278 193.899 224.787V158.819L208.325 155.212V211.137C208.325 254.248 251.905 286.482 272.987 299.526Z" fill="#D66765"/>
<path d="M258.59 308.361L257.486 307.809C256.802 307.467 240.518 299.257 223.978 284.782C214.214 276.239 206.425 267.295 200.824 258.191C193.739 246.679 190.149 234.888 190.149 223.158V155.24L258.59 138.127L259.192 138.276L327.032 155.236V223.137C327.032 234.888 323.442 246.679 316.357 258.17C310.756 267.274 302.966 276.218 293.203 284.762C276.663 299.236 260.379 307.43 259.695 307.789L258.59 308.361ZM195.095 159.102V223.137C195.095 233.956 198.437 244.878 205.036 255.598C210.394 264.278 217.845 272.847 227.234 281.061C236.872 289.419 247.385 296.711 258.59 302.81C269.826 296.691 280.367 289.376 290.029 280.991C299.397 272.781 306.849 264.224 312.174 255.569C318.768 244.853 322.065 233.96 322.065 223.158V159.102L258.59 143.226L195.095 159.102Z" fill="#426572"/>
<path d="M220.269 248.481L248.773 271.285L252.82 274.524C255.054 276.313 257.173 277.298 260.091 276.907C261.39 276.75 262.636 276.297 263.732 275.582C264.828 274.868 265.745 273.911 266.413 272.785L297.613 221.774L302.064 214.499C304.43 210.633 303.037 204.809 298.96 202.658C294.744 200.428 289.642 201.636 287.119 205.762L255.92 256.769L251.468 264.043L265.069 262.292L236.573 239.496L232.526 236.256C228.998 233.433 223.686 232.547 220.285 236.256C217.4 239.397 216.51 245.476 220.285 248.497L220.269 248.481Z" fill="white"/>
<path opacity="0.2" d="M146.725 143.054C149.605 137.647 151.374 131.718 151.926 125.616C152.478 119.514 151.802 113.364 149.939 107.528C148.075 101.692 145.061 96.2882 141.076 91.6354C137.09 86.9831 132.213 83.1761 126.731 80.439C121.25 77.7019 115.277 76.0904 109.162 75.6997C103.049 75.309 96.9182 76.1469 91.1333 78.1635C85.3484 80.1806 80.0259 83.336 75.4803 87.4431C70.9343 91.5505 67.2571 96.5264 64.6659 102.078C61.0873 108.798 59.2371 116.303 59.282 123.916C59.327 131.53 61.2657 139.012 64.9235 145.69C68.5814 152.367 73.8433 158.029 80.2349 162.166C86.6265 166.302 93.9471 168.784 101.537 169.386C100.213 169.699 98.8673 169.953 97.5019 170.149C104.686 171.184 112.014 170.501 118.883 168.153C125.752 165.806 131.966 161.863 137.015 156.647C141.054 152.746 144.345 148.139 146.725 143.054Z" fill="#606060"/>
<path d="M100.053 158.673C125.387 158.673 145.925 138.135 145.925 112.801C145.925 87.4665 125.387 66.9287 100.053 66.9287C74.7187 66.9287 54.1809 87.4665 54.1809 112.801C54.1809 138.135 74.7187 158.673 100.053 158.673Z" fill="#A8EF9E"/>
<path d="M143.737 116.079C143.736 122.656 142.32 129.155 139.587 135.137C136.853 141.119 132.865 146.443 127.894 150.749C122.922 155.055 117.083 158.241 110.772 160.092C104.461 161.943 97.8252 162.415 91.3157 161.477C102.231 159.899 112.213 154.441 119.432 146.103C126.651 137.766 130.625 127.106 130.625 116.077C130.625 105.048 126.651 94.3877 119.432 86.05C112.213 77.7122 102.231 72.2545 91.3157 70.6764C97.826 69.7375 104.462 70.2094 110.774 72.0604C117.086 73.9114 122.926 77.0977 127.898 81.4038C132.87 85.7099 136.859 91.0349 139.592 97.0177C142.325 103 143.741 109.501 143.741 116.079H143.737Z" fill="#A7E59C"/>
<path d="M98.9611 163.327C89.3988 163.328 80.0513 160.494 72.1005 155.181C64.1493 149.87 57.9522 142.319 54.2928 133.485C50.6329 124.651 49.6755 114.93 51.5404 105.552C53.4058 96.1732 58.0104 87.5589 64.7717 80.7972C71.5334 74.0358 80.1477 69.4313 89.5261 67.5659C98.9046 65.701 108.626 66.6584 117.46 70.3183C126.294 73.9777 133.844 80.1748 139.156 88.126C144.468 96.0767 147.303 105.424 147.302 114.987C147.287 127.803 142.189 140.089 133.127 149.152C124.064 158.214 111.777 163.312 98.9611 163.327ZM98.9611 71.5873C90.3772 71.5864 81.9863 74.1311 74.8487 78.8992C67.7111 83.6678 62.1479 90.4456 58.8623 98.3753C55.577 106.305 54.7169 115.032 56.391 123.451C58.0652 131.87 62.1982 139.603 68.2675 145.673C74.3368 151.743 82.07 155.877 90.4885 157.552C98.9075 159.227 107.634 158.367 115.564 155.082C123.495 151.798 130.273 146.235 135.042 139.098C139.811 131.961 142.356 123.57 142.356 114.987C142.344 103.481 137.769 92.4494 129.633 84.3132C121.498 76.177 110.467 71.6005 98.9611 71.5873Z" fill="#426572"/>
<path d="M285.331 95.644H276.057V100.59H285.331V95.644Z" fill="#426572"/>
<path d="M270.077 95.644H245.076V100.59H270.077V95.644Z" fill="#426572"/>
<path d="M116.993 140.061C103.532 141.969 86.9388 137.032 86.9388 137.032L78.7576 138.66C78.3991 138.729 78.0294 138.716 77.6766 138.622C77.3234 138.529 76.9961 138.357 76.7187 138.119C76.4414 137.881 76.2213 137.584 76.075 137.25C75.9282 136.915 75.859 136.552 75.8726 136.187C76.0383 130.336 75.8883 124.48 75.4234 118.646C75.3821 118.224 75.4522 117.799 75.6265 117.413C75.8013 117.027 76.0741 116.694 76.4179 116.446C76.762 116.199 77.1647 116.046 77.5859 116.003C78.0075 115.96 78.4329 116.028 78.8195 116.202C80.6626 117.111 82.683 117.607 84.7379 117.652C89.7043 117.611 94.0401 113.803 96.2575 109.282C98.4748 104.76 98.9777 101.83 99.4434 96.8017C99.6454 94.6049 99.9668 92.1691 101.636 90.7596C104.521 88.3156 109.269 91.1717 110.205 94.8605C111.14 98.5492 109.632 100.19 108.358 103.775C107.534 106.116 107.715 106.248 107.048 108.659C106.963 108.855 106.921 109.067 106.925 109.28C106.929 109.493 106.98 109.704 107.072 109.896C107.192 110.03 107.338 110.138 107.501 110.213C107.664 110.288 107.841 110.329 108.02 110.333C110.716 110.679 112.484 111.684 115.183 111.981C116.424 112.116 117.603 112.593 118.588 113.359C119.573 114.126 120.325 115.151 120.76 116.321V136.553C120.764 137.036 120.668 137.515 120.478 137.958C120.287 138.402 120.007 138.801 119.655 139.131C119.302 139.46 118.885 139.713 118.429 139.874C117.974 140.034 117.491 140.098 117.009 140.061H116.993Z" fill="#85D175"/>
</g>
<defs>
<linearGradient id="paint0_linear_5723_150323" x1="0.544074" y1="153.847" x2="517.082" y2="153.847" gradientUnits="userSpaceOnUse">
<stop stop-color="#C5E9FA"/>
<stop offset="1" stop-color="#C4F4EA"/>
</linearGradient>
</defs>
</svg>
