<svg width="260" height="260" viewBox="0 0 260 260" fill="none" xmlns="http://www.w3.org/2000/svg">
<g clip-path="url(#clip0_5824_150270)">
<path d="M260 0H0V260H260V0Z" fill="white"/>
<path d="M198.822 185.38H60.398C58.76 185.38 57.46 184.054 57.46 182.442C57.46 180.804 58.786 179.504 60.398 179.504H198.822C200.46 179.504 201.76 180.83 201.76 182.442C201.786 184.054 200.46 185.38 198.822 185.38Z" fill="#36303E"/>
<path d="M165.282 165.724H143.13V174.356H165.282V165.724Z" fill="#403A46"/>
<path opacity="0.75" d="M165.282 166.53H143.13V170.95H165.282V166.53Z" fill="#37333D"/>
<path d="M165.282 165.724H143.13V174.356H165.282V165.724Z" stroke="#36303E" stroke-width="4" stroke-miterlimit="10" stroke-linecap="round" stroke-linejoin="round"/>
<path d="M186.81 92.326H133.25C133.25 87.724 136.968 84.006 141.57 84.006H178.49C183.092 84.006 186.81 87.724 186.81 92.326Z" fill="#403A46"/>
<path opacity="0.13" d="M139.022 88.166H181.038C182.988 88.166 183.586 85.462 181.792 84.682C180.778 84.24 179.66 84.006 178.49 84.006H141.57C140.4 84.006 139.282 84.24 138.268 84.682C136.474 85.462 137.072 88.166 139.022 88.166Z" fill="#EDEDED"/>
<path d="M186.81 92.326H133.25C133.25 87.724 136.968 84.006 141.57 84.006H178.49C183.092 84.006 186.81 87.724 186.81 92.326Z" stroke="#36303E" stroke-width="4" stroke-miterlimit="10" stroke-linecap="round" stroke-linejoin="round"/>
<path d="M127.998 152.854H118.3V161.564H127.998V152.854Z" fill="#403A46"/>
<path d="M127.998 152.854H118.3V161.564H127.998V152.854Z" stroke="#372F3C" stroke-width="4" stroke-miterlimit="10" stroke-linecap="round" stroke-linejoin="round"/>
<path d="M178.958 167.466H132.808C128.128 167.466 124.488 163.41 125.06 158.73L133.25 92.326H186.81V159.718C186.81 164.008 183.274 167.466 178.958 167.466Z" fill="#FCAF43"/>
<path d="M126.906 161.876H125.008V159.666H129.116C129.116 160.888 128.128 161.876 126.906 161.876Z" fill="#FA932A"/>
<path d="M183.664 99.762V158.548C183.664 162.032 180.83 164.866 177.346 164.866H132.08C130.806 164.866 129.766 165.932 129.818 167.206C130.442 167.362 132.132 167.466 132.808 167.466H178.958C183.274 167.466 186.81 163.93 186.81 159.614V96.616C185.068 96.616 183.664 98.02 183.664 99.762Z" fill="#FA932A"/>
<path d="M184.548 148.2H182.91C181.948 148.2 181.194 148.98 181.194 149.916V160.94C181.194 162.188 182.208 163.176 183.43 163.176H184.548V148.2Z" fill="#FA932A"/>
<path d="M168.922 95.706H132.834L126.178 149.786H168.922C175.812 149.786 181.35 144.248 181.35 137.358V108.056C181.35 101.14 175.812 95.706 168.922 95.706Z" fill="#3BA2DC"/>
<path opacity="0.63" d="M167.96 150.15H154.206V144.95C154.206 136.916 160.732 130.39 168.766 130.39H181.844V136.266C181.844 143.936 175.63 150.15 167.96 150.15Z" fill="#36303E"/>
<path opacity="0.63" d="M181.844 130.39H172.588V120.406C172.588 117.806 174.694 115.7 177.294 115.7H181.844V130.39Z" fill="#36303E"/>
<path opacity="0.63" d="M181.844 115.726H179.01V108.238C179.01 107.276 179.79 106.522 180.726 106.522H181.818V115.726H181.844Z" fill="#36303E"/>
<path d="M128.206 133.354L126.178 149.786H143.494L128.206 133.354Z" fill="#385A78"/>
<path d="M147.03 131.3L140.92 137.904" stroke="#385A78" stroke-width="6" stroke-miterlimit="10" stroke-linecap="round" stroke-linejoin="round"/>
<path d="M151.476 135.928L142.584 126.672" stroke="#385A78" stroke-width="6" stroke-miterlimit="10" stroke-linecap="round" stroke-linejoin="round"/>
<path d="M137.462 144.066L134.524 140.842L139.594 135.772L142.688 138.866L137.462 144.066Z" fill="#385A78"/>
<path opacity="0.76" d="M168.922 95.706H132.834L126.178 149.786H168.922C175.812 149.786 181.35 144.248 181.35 137.358V108.056C181.35 101.14 175.812 95.706 168.922 95.706Z" fill="#3BA2DC"/>
<path opacity="0.35" d="M160.628 95.706H142.558L181.194 139.282C181.298 138.658 181.35 138.008 181.35 137.358V119.08L160.628 95.706Z" fill="white"/>
<path opacity="0.35" d="M136.994 95.706H132.912L177.684 146.172C178.412 145.444 179.062 144.612 179.608 143.728L136.994 95.706Z" fill="white"/>
<path opacity="0.35" d="M133.25 92.326L125.06 158.73C125.034 158.99 125.008 159.25 125.008 159.536C126.75 159.536 128.206 158.236 128.414 156.52L136.058 94.484H183.144C184.34 94.484 185.302 93.522 185.302 92.326H133.25Z" fill="#FDE3BE"/>
<path opacity="0.08" d="M168.922 95.706H132.834L131.066 110.136H133.276H140.92H169.338C175.084 110.136 179.894 113.932 181.35 119.21V108.056C181.35 101.14 175.812 95.706 168.922 95.706Z" fill="white"/>
<path d="M168.922 95.706H132.834L126.178 149.786H168.922C175.812 149.786 181.35 144.248 181.35 137.358V108.056C181.35 101.14 175.812 95.706 168.922 95.706Z" stroke="#36303E" stroke-width="4" stroke-miterlimit="10" stroke-linecap="round" stroke-linejoin="round"/>
<path d="M178.958 167.466H132.808C128.128 167.466 124.488 163.41 125.06 158.73L133.25 92.326H186.81V159.718C186.81 164.008 183.274 167.466 178.958 167.466Z" stroke="#36303E" stroke-width="4" stroke-miterlimit="10" stroke-linecap="round" stroke-linejoin="round"/>
<path d="M115.44 103.35V161.33H57.46C57.46 163.774 59.436 165.75 61.88 165.75H115.7H119.86V161.59V103.35H115.44Z" fill="#67646D"/>
<path opacity="0.13" d="M114.608 163.176H60.0082C59.5662 163.176 59.2021 162.812 59.2021 162.37C59.2021 161.928 59.5662 161.564 60.0082 161.564H114.634C115.076 161.564 115.44 161.928 115.44 162.37C115.44 162.812 115.076 163.176 114.608 163.176Z" fill="#EDEDED"/>
<path opacity="0.13" d="M116.402 161.876C115.856 161.876 115.414 161.434 115.414 160.888V105.976C115.414 105.43 115.856 104.988 116.402 104.988C116.948 104.988 117.39 105.43 117.39 105.976V160.888C117.39 161.434 116.948 161.876 116.402 161.876Z" fill="#EDEDED"/>
<path d="M115.44 104.884V161.304H57.46C57.46 163.748 59.436 165.724 61.88 165.724H115.7H119.86V161.564V104.884C119.86 104.026 119.158 103.324 118.3 103.324H116.974C116.116 103.35 115.44 104.026 115.44 104.884Z" stroke="#372F3C" stroke-width="4" stroke-miterlimit="10" stroke-linecap="round" stroke-linejoin="round"/>
<path d="M137.28 96.226H133.874C134.186 94.588 135.148 93.184 136.5 92.326H133.25C131.612 93.392 130.546 95.238 130.546 97.344C130.546 97.448 130.546 97.552 130.546 97.656C130.546 97.708 130.546 97.76 130.546 97.812V105.872C130.546 106.73 131.248 107.432 132.106 107.432H137.306C138.164 107.432 138.866 106.73 138.866 105.872V97.812C138.84 96.928 138.138 96.226 137.28 96.226Z" fill="#403A46"/>
<path opacity="0.74" d="M137.202 98.722V105.196C137.202 105.742 136.76 106.158 136.24 106.158H130.572C130.728 106.86 131.352 107.406 132.106 107.406H137.306C138.164 107.406 138.866 106.704 138.866 105.846V97.786C138.866 97.682 138.84 97.552 138.84 97.448H138.502C137.774 97.448 137.202 98.02 137.202 98.722Z" fill="#36303E"/>
<path opacity="0.13" d="M131.638 106.002H130.78V96.538C130.78 96.07 131.17 95.68 131.638 95.68C132.106 95.68 132.496 96.07 132.496 96.538V105.144C132.47 105.612 132.106 106.002 131.638 106.002Z" fill="#EDEDED"/>
<path d="M137.28 96.226H133.874C134.186 94.588 135.148 93.184 136.5 92.326H133.25C131.612 93.392 130.546 95.238 130.546 97.344C130.546 97.448 130.546 97.552 130.546 97.656C130.546 97.708 130.546 97.76 130.546 97.812V105.872C130.546 106.73 131.248 107.432 132.106 107.432H137.306C138.164 107.432 138.866 106.73 138.866 105.872V97.812C138.84 96.928 138.138 96.226 137.28 96.226Z" stroke="#36303E" stroke-width="4" stroke-miterlimit="10" stroke-linecap="round" stroke-linejoin="round"/>
<path d="M152.438 171.834C152.438 172.458 151.866 173.03 151.762 173.628C151.658 174.252 151.996 174.98 151.788 175.552C151.58 176.15 150.852 176.488 150.54 177.008C150.228 177.554 150.306 178.36 149.89 178.828C149.5 179.296 148.694 179.374 148.2 179.764C147.732 180.154 147.524 180.934 146.978 181.246C146.432 181.558 145.652 181.35 145.08 181.558C144.508 181.766 144.04 182.442 143.416 182.546C142.818 182.65 142.142 182.182 141.518 182.182C140.894 182.182 140.218 182.65 139.62 182.546C138.996 182.442 138.528 181.766 137.956 181.558C137.358 181.35 136.578 181.558 136.058 181.246C135.512 180.934 135.304 180.154 134.836 179.764C134.368 179.374 133.562 179.296 133.146 178.828C132.756 178.36 132.808 177.554 132.496 177.008C132.184 176.462 131.456 176.124 131.248 175.552C131.04 174.98 131.378 174.252 131.274 173.628C131.17 173.03 130.598 172.458 130.598 171.834C130.598 171.21 131.17 170.638 131.274 170.04C131.378 169.416 131.04 168.688 131.248 168.116C131.456 167.518 132.184 167.18 132.496 166.66C132.808 166.114 132.73 165.308 133.146 164.84C133.536 164.372 134.342 164.294 134.836 163.904C135.304 163.514 135.512 162.734 136.058 162.422C136.604 162.11 137.384 162.318 137.956 162.11C138.528 161.902 138.996 161.226 139.62 161.122C140.218 161.018 140.894 161.486 141.518 161.486C142.142 161.486 142.818 161.018 143.416 161.122C144.04 161.226 144.508 161.902 145.08 162.11C145.678 162.318 146.458 162.11 146.978 162.422C147.524 162.734 147.732 163.514 148.2 163.904C148.668 164.294 149.474 164.372 149.89 164.84C150.28 165.308 150.228 166.114 150.54 166.66C150.852 167.206 151.58 167.544 151.788 168.116C151.996 168.688 151.658 169.416 151.762 170.04C151.866 170.638 152.438 171.21 152.438 171.834Z" fill="#403A46"/>
<path opacity="0.4" d="M158.392 77.818C157.69 77.818 157.118 77.246 157.118 76.544V74.074C157.118 73.372 157.69 72.8 158.392 72.8C159.094 72.8 159.666 73.372 159.666 74.074V76.544C159.666 77.246 159.094 77.818 158.392 77.818Z" fill="#FDE3BE"/>
<path d="M152.074 174.564C151.918 175.188 151.216 175.578 150.956 176.15C150.696 176.722 150.852 177.528 150.488 178.022C150.124 178.542 149.344 178.698 148.902 179.114C148.46 179.556 148.33 180.362 147.836 180.726C147.342 181.09 146.536 180.96 145.964 181.22C145.418 181.48 145.002 182.182 144.404 182.364C143.806 182.52 143.104 182.13 142.48 182.182C141.856 182.234 141.258 182.754 140.634 182.702C140.036 182.65 139.49 182.052 138.892 181.87C138.294 181.688 137.514 182 136.968 181.74C136.396 181.48 136.11 180.726 135.616 180.362C135.096 179.998 134.29 179.998 133.848 179.582C133.406 179.14 133.406 178.334 133.042 177.84C132.678 177.346 131.924 177.06 131.664 176.514C131.404 175.968 131.664 175.188 131.508 174.59C131.352 173.992 130.728 173.472 130.65 172.848C130.598 172.224 131.092 171.6 131.144 170.976C131.196 170.378 130.78 169.676 130.936 169.052C131.092 168.428 131.794 168.038 132.054 167.466C132.314 166.894 132.158 166.088 132.522 165.594C132.886 165.074 133.666 164.918 134.108 164.502C134.55 164.06 134.68 163.254 135.174 162.89C135.668 162.526 136.474 162.656 137.046 162.396C137.592 162.136 138.008 161.434 138.606 161.252C139.204 161.096 139.906 161.486 140.53 161.434C141.154 161.382 141.752 160.862 142.376 160.914C142.974 160.966 143.52 161.564 144.118 161.746C144.716 161.928 145.496 161.616 146.042 161.876C146.614 162.136 146.9 162.89 147.394 163.254C147.914 163.618 148.72 163.618 149.162 164.034C149.604 164.476 149.604 165.282 149.968 165.776C150.332 166.27 151.086 166.556 151.346 167.102C151.606 167.648 151.346 168.428 151.502 169.026C151.658 169.624 152.282 170.144 152.36 170.768C152.412 171.392 151.918 172.016 151.866 172.64C151.84 173.264 152.23 173.966 152.074 174.564Z" stroke="#36303E" stroke-width="6" stroke-miterlimit="10" stroke-linecap="round" stroke-linejoin="round"/>
<path d="M141.518 178.334C145.107 178.334 148.018 175.424 148.018 171.834C148.018 168.244 145.107 165.334 141.518 165.334C137.928 165.334 135.018 168.244 135.018 171.834C135.018 175.424 137.928 178.334 141.518 178.334Z" fill="#9B989F"/>
<path d="M141.518 167.466C144.742 167.466 147.42 169.832 147.94 172.9C147.992 172.562 148.018 172.198 148.018 171.834C148.018 168.246 145.106 165.334 141.518 165.334C137.93 165.334 135.018 168.246 135.018 171.834C135.018 172.198 135.044 172.562 135.096 172.9C135.59 169.806 138.268 167.466 141.518 167.466Z" fill="#8F8D91"/>
<path d="M141.518 174.59C143.04 174.59 144.274 173.356 144.274 171.834C144.274 170.312 143.04 169.078 141.518 169.078C139.996 169.078 138.762 170.312 138.762 171.834C138.762 173.356 139.996 174.59 141.518 174.59Z" fill="#FCAF43"/>
<path d="M141.518 174.59C143.04 174.59 144.274 173.356 144.274 171.834C144.274 170.312 143.04 169.078 141.518 169.078C139.996 169.078 138.762 170.312 138.762 171.834C138.762 173.356 139.996 174.59 141.518 174.59Z" stroke="#36303E" stroke-width="4" stroke-miterlimit="10" stroke-linecap="round" stroke-linejoin="round"/>
<path d="M141.518 178.334C145.107 178.334 148.018 175.424 148.018 171.834C148.018 168.244 145.107 165.334 141.518 165.334C137.928 165.334 135.018 168.244 135.018 171.834C135.018 175.424 137.928 178.334 141.518 178.334Z" stroke="#36303E" stroke-width="4" stroke-miterlimit="10" stroke-linecap="round" stroke-linejoin="round"/>
<path d="M180.414 171.834C180.414 172.458 179.842 173.03 179.738 173.628C179.634 174.252 179.972 174.98 179.764 175.552C179.556 176.15 178.828 176.488 178.516 177.008C178.204 177.554 178.282 178.36 177.866 178.828C177.476 179.296 176.67 179.374 176.176 179.764C175.708 180.154 175.5 180.934 174.954 181.246C174.408 181.558 173.628 181.35 173.056 181.558C172.484 181.766 172.016 182.442 171.392 182.546C170.794 182.65 170.118 182.182 169.494 182.182C168.87 182.182 168.194 182.65 167.596 182.546C166.972 182.442 166.504 181.766 165.932 181.558C165.334 181.35 164.554 181.558 164.034 181.246C163.488 180.934 163.28 180.154 162.812 179.764C162.344 179.374 161.538 179.296 161.122 178.828C160.732 178.36 160.784 177.554 160.472 177.008C160.16 176.462 159.432 176.124 159.224 175.552C159.016 174.98 159.354 174.252 159.25 173.628C159.146 173.03 158.574 172.458 158.574 171.834C158.574 171.21 159.146 170.638 159.25 170.04C159.354 169.416 159.016 168.688 159.224 168.116C159.432 167.518 160.16 167.18 160.472 166.66C160.784 166.114 160.706 165.308 161.122 164.84C161.512 164.372 162.318 164.294 162.812 163.904C163.28 163.514 163.488 162.734 164.034 162.422C164.58 162.11 165.36 162.318 165.932 162.11C166.504 161.902 166.972 161.226 167.596 161.122C168.194 161.018 168.87 161.486 169.494 161.486C170.118 161.486 170.794 161.018 171.392 161.122C172.016 161.226 172.484 161.902 173.056 162.11C173.654 162.318 174.434 162.11 174.954 162.422C175.5 162.734 175.708 163.514 176.176 163.904C176.644 164.294 177.45 164.372 177.866 164.84C178.256 165.308 178.204 166.114 178.516 166.66C178.828 167.206 179.556 167.544 179.764 168.116C179.972 168.688 179.634 169.416 179.738 170.04C179.842 170.638 180.414 171.21 180.414 171.834Z" fill="#403A46"/>
<path d="M180.05 174.564C179.894 175.188 179.192 175.578 178.932 176.15C178.672 176.722 178.828 177.528 178.464 178.022C178.1 178.542 177.32 178.698 176.878 179.114C176.436 179.556 176.306 180.362 175.812 180.726C175.318 181.09 174.512 180.96 173.94 181.22C173.394 181.48 172.978 182.182 172.38 182.364C171.782 182.52 171.08 182.13 170.456 182.182C169.832 182.234 169.234 182.754 168.61 182.702C168.012 182.65 167.466 182.052 166.868 181.87C166.244 181.714 165.49 182 164.944 181.74C164.372 181.48 164.086 180.726 163.592 180.362C163.072 179.998 162.266 179.998 161.824 179.582C161.382 179.14 161.382 178.334 161.018 177.84C160.654 177.346 159.9 177.06 159.64 176.514C159.38 175.968 159.64 175.188 159.484 174.59C159.328 173.992 158.704 173.472 158.626 172.848C158.574 172.224 159.068 171.6 159.12 170.976C159.172 170.378 158.756 169.676 158.912 169.052C159.068 168.428 159.77 168.038 160.03 167.466C160.29 166.894 160.134 166.088 160.498 165.594C160.862 165.074 161.642 164.918 162.084 164.502C162.526 164.06 162.656 163.254 163.15 162.89C163.644 162.526 164.45 162.656 165.022 162.396C165.568 162.136 165.984 161.434 166.582 161.252C167.18 161.096 167.882 161.486 168.506 161.434C169.13 161.382 169.728 160.862 170.352 160.914C170.95 160.966 171.496 161.564 172.094 161.746C172.718 161.902 173.472 161.616 174.018 161.876C174.59 162.136 174.876 162.89 175.37 163.254C175.89 163.618 176.696 163.618 177.138 164.034C177.58 164.476 177.58 165.282 177.944 165.776C178.308 166.27 179.062 166.556 179.322 167.102C179.582 167.648 179.322 168.428 179.478 169.026C179.634 169.624 180.258 170.144 180.336 170.768C180.388 171.392 179.894 172.016 179.842 172.64C179.816 173.264 180.232 173.966 180.05 174.564Z" stroke="#36303E" stroke-width="6" stroke-miterlimit="10" stroke-linecap="round" stroke-linejoin="round"/>
<path d="M169.494 178.334C173.084 178.334 175.994 175.424 175.994 171.834C175.994 168.244 173.084 165.334 169.494 165.334C165.904 165.334 162.994 168.244 162.994 171.834C162.994 175.424 165.904 178.334 169.494 178.334Z" fill="#9B989F"/>
<path d="M169.494 167.466C172.718 167.466 175.396 169.832 175.916 172.9C175.968 172.562 175.994 172.198 175.994 171.834C175.994 168.246 173.082 165.334 169.494 165.334C165.906 165.334 162.994 168.246 162.994 171.834C162.994 172.198 163.02 172.562 163.072 172.9C163.592 169.806 166.27 167.466 169.494 167.466Z" fill="#8F8D91"/>
<path d="M169.494 174.59C171.016 174.59 172.25 173.356 172.25 171.834C172.25 170.312 171.016 169.078 169.494 169.078C167.972 169.078 166.738 170.312 166.738 171.834C166.738 173.356 167.972 174.59 169.494 174.59Z" fill="#FCAF43"/>
<path d="M169.494 174.59C171.016 174.59 172.25 173.356 172.25 171.834C172.25 170.312 171.016 169.078 169.494 169.078C167.972 169.078 166.738 170.312 166.738 171.834C166.738 173.356 167.972 174.59 169.494 174.59Z" stroke="#36303E" stroke-width="4" stroke-miterlimit="10" stroke-linecap="round" stroke-linejoin="round"/>
<path d="M169.494 178.334C173.084 178.334 175.994 175.424 175.994 171.834C175.994 168.244 173.084 165.334 169.494 165.334C165.904 165.334 162.994 168.244 162.994 171.834C162.994 175.424 165.904 178.334 169.494 178.334Z" stroke="#36303E" stroke-width="4" stroke-miterlimit="10" stroke-linecap="round" stroke-linejoin="round"/>
<path d="M165.36 79.612H157.456V83.98H165.36V79.612Z" fill="#67646D"/>
<path opacity="0.75" d="M165.36 82.472H157.456V83.98H165.36V82.472Z" fill="#403A46"/>
<path d="M165.36 79.612H157.456V83.98H165.36V79.612Z" stroke="#36303E" stroke-width="4" stroke-miterlimit="10" stroke-linecap="round" stroke-linejoin="round"/>
<path d="M165.36 79.612H157.456V74.49C157.456 73.164 158.548 72.072 159.874 72.072H162.942C164.268 72.072 165.36 73.164 165.36 74.49V79.612Z" fill="#FCAF43"/>
<path opacity="0.4" d="M159.016 78.052H157.716V74.334C157.716 73.632 158.288 73.034 159.016 73.034C159.718 73.034 160.316 73.606 160.316 74.334V76.778C160.29 77.48 159.718 78.052 159.016 78.052Z" fill="#FDE3BE"/>
<path d="M163.566 74.308V78.26H157.456V79.612H165.36V74.282C165.36 73.84 165.048 73.476 164.684 73.476H164.294C163.904 73.476 163.566 73.866 163.566 74.308Z" fill="#FA932A"/>
<path d="M165.36 79.612H157.456V74.49C157.456 73.164 158.548 72.072 159.874 72.072H162.942C164.268 72.072 165.36 73.164 165.36 74.49V79.612Z" stroke="#36303E" stroke-width="4" stroke-miterlimit="10" stroke-linecap="round" stroke-linejoin="round"/>
<path d="M186.836 160.836H183.534V150.54H186.836C187.798 150.54 188.552 151.32 188.552 152.256V159.12C188.552 160.082 187.772 160.836 186.836 160.836Z" fill="#C71F2C"/>
<path opacity="0.27" d="M184.262 159.328H183.924V151.866C183.924 151.554 184.184 151.294 184.496 151.294C184.86 151.294 185.172 151.58 185.172 151.97V158.444C185.146 158.938 184.756 159.328 184.262 159.328Z" fill="#FDE3BE"/>
<path d="M187.044 150.54C187.044 150.592 187.07 150.618 187.07 150.67V158.964C187.07 159.432 186.706 159.796 186.238 159.796H183.534V160.836H186.836C187.798 160.836 188.552 160.056 188.552 159.12V152.256C188.552 151.372 187.876 150.644 187.044 150.54Z" fill="#AD1E2F"/>
<path d="M186.836 160.836H184.158C183.82 160.836 183.534 160.55 183.534 160.212V151.164C183.534 150.826 183.82 150.54 184.158 150.54H186.836C187.798 150.54 188.552 151.32 188.552 152.256V159.12C188.552 160.082 187.772 160.836 186.836 160.836Z" stroke="#36303E" stroke-width="4" stroke-miterlimit="10" stroke-linecap="round" stroke-linejoin="round"/>
<path d="M115.44 161.33H57.46C57.46 160.342 58.266 159.536 59.254 159.536H115.44V161.33Z" fill="#36303E"/>
<path d="M115.44 161.33H57.46C57.46 160.342 58.266 159.536 59.254 159.536H115.44V161.33Z" stroke="#372F3C" stroke-width="4" stroke-miterlimit="10" stroke-linecap="round" stroke-linejoin="round"/>
<path d="M147.55 152.854H164.268" stroke="#FA932A" stroke-width="5" stroke-miterlimit="10" stroke-linecap="round" stroke-linejoin="round"/>
<path d="M147.706 155.688H151.372" stroke="#FA932A" stroke-width="5" stroke-miterlimit="10" stroke-linecap="round" stroke-linejoin="round"/>
<path d="M147.706 158.262H154.622" stroke="#FA932A" stroke-width="5" stroke-miterlimit="10" stroke-linecap="round" stroke-linejoin="round"/>
<path d="M129.454 159.536H125.372C124.41 159.536 123.604 158.756 123.604 157.768V155.428C123.604 154.466 124.384 153.66 125.372 153.66H129.454V159.536Z" fill="#C71F2C"/>
<path opacity="0.27" d="M124.072 158.73V154.466C124.618 154.466 125.086 154.908 125.086 155.48V157.716C125.086 158.288 124.618 158.73 124.072 158.73Z" fill="#FDE3BE"/>
<path d="M129.428 153.686H126.516V159.536H129.428V153.686Z" fill="#FFB808"/>
<path d="M127.998 159.536C127.192 159.536 126.542 158.886 126.542 158.08V155.168C126.542 154.362 127.192 153.712 127.998 153.712C128.804 153.712 129.454 154.362 129.454 155.168V158.08C129.454 158.86 128.804 159.536 127.998 159.536Z" stroke="#36303E" stroke-width="4" stroke-miterlimit="10" stroke-linecap="round" stroke-linejoin="round"/>
<path d="M128.076 159.536H125.372C124.41 159.536 123.604 158.756 123.604 157.768V155.428C123.604 154.466 124.384 153.66 125.372 153.66H128.076C128.83 153.66 129.454 154.284 129.454 155.038V158.132C129.454 158.912 128.83 159.536 128.076 159.536Z" stroke="#36303E" stroke-width="4" stroke-miterlimit="10" stroke-linecap="round" stroke-linejoin="round"/>
<path d="M104.442 160.29H68.4321C66.0141 160.29 64.0381 158.314 64.0381 155.896V119.886C64.0381 117.468 66.0141 115.492 68.4321 115.492H104.442C106.86 115.492 108.836 117.468 108.836 119.886V155.896C108.836 158.314 106.86 160.29 104.442 160.29Z" fill="#47A942"/>
<path d="M65.7281 152.802V123.578C65.7281 121.16 67.7041 119.184 70.1221 119.184H102.752C105.17 119.184 107.146 121.16 107.146 123.578V152.802C107.146 153.738 107.9 154.492 108.836 154.492V119.912C108.836 117.494 106.86 115.518 104.442 115.518H68.4321C66.0141 115.518 64.0381 117.494 64.0381 119.912V154.492C64.9741 154.466 65.7281 153.712 65.7281 152.802Z" fill="#81C347"/>
<path d="M86.45 149.396C92.7969 149.396 97.942 144.251 97.942 137.904C97.942 131.557 92.7969 126.412 86.45 126.412C80.1032 126.412 74.958 131.557 74.958 137.904C74.958 144.251 80.1032 149.396 86.45 149.396Z" fill="#5CB342"/>
<path d="M64.7656 117.468H108.108C107.328 116.272 105.976 115.492 104.442 115.492H68.4316C66.8976 115.492 65.5456 116.298 64.7656 117.468Z" fill="#CADB2A"/>
<path d="M79.1963 133.302V116.584C79.1963 115.7 79.9243 114.972 80.8083 114.972H90.0643C90.9483 114.972 91.6763 115.7 91.6763 116.584V126.828C91.6763 127.348 91.4163 127.842 91.0003 128.154L81.7443 134.628C80.6523 135.356 79.1963 134.602 79.1963 133.302Z" fill="#26863F" stroke="#26863F" stroke-width="5" stroke-miterlimit="10"/>
<path d="M104.442 157.17H68.4321C66.0141 157.17 64.0381 155.194 64.0381 152.776V155.896C64.0381 158.314 66.0141 160.29 68.4321 160.29H104.442C106.86 160.29 108.836 158.314 108.836 155.896V152.776C108.836 155.194 106.86 157.17 104.442 157.17Z" fill="#26863F"/>
<path d="M104.442 160.29H68.4321C66.0141 160.29 64.0381 158.314 64.0381 155.896V119.886C64.0381 117.468 66.0141 115.492 68.4321 115.492H104.442C106.86 115.492 108.836 117.468 108.836 119.886V155.896C108.836 158.314 106.86 160.29 104.442 160.29Z" stroke="#36303E" stroke-width="4" stroke-miterlimit="10" stroke-linecap="round" stroke-linejoin="round"/>
<path d="M78.6758 133.874V115.128C78.6758 114.634 79.0918 114.218 79.5858 114.218H90.2458C90.7398 114.218 91.1558 114.634 91.1558 115.128V126.438C91.1558 126.724 90.9998 127.01 90.7658 127.192L80.1058 134.628C79.5078 135.018 78.6758 134.602 78.6758 133.874Z" fill="#F78F1E"/>
<path d="M90.2458 114.192H79.5858C79.0918 114.192 78.6758 114.608 78.6758 115.102V121.68H91.1558V115.102C91.1558 114.608 90.7398 114.192 90.2458 114.192Z" fill="#FDB813"/>
<path d="M90.2458 114.192H79.5858C79.0918 114.192 78.6758 114.608 78.6758 115.102V116.48H91.1558V115.102C91.1558 114.608 90.7398 114.192 90.2458 114.192Z" fill="#FEF200"/>
<path d="M78.6758 133.874V115.128C78.6758 114.634 79.0918 114.218 79.5858 114.218H90.2458C90.7398 114.218 91.1558 114.634 91.1558 115.128V126.438C91.1558 126.724 90.9998 127.01 90.7658 127.192L80.1058 134.628C79.5078 135.018 78.6758 134.602 78.6758 133.874Z" stroke="#36303E" stroke-width="4" stroke-miterlimit="10" stroke-linecap="round" stroke-linejoin="round"/>
<path d="M68.7181 148.46C68.2761 148.46 67.9121 148.096 67.9121 147.654V123.162C67.9121 122.72 68.2761 122.356 68.7181 122.356C69.1601 122.356 69.5241 122.72 69.5241 123.162V147.654C69.5241 148.096 69.1601 148.46 68.7181 148.46Z" fill="#81C347"/>
<path d="M68.7181 152.1C68.2761 152.1 67.9121 151.736 67.9121 151.294V150.592C67.9121 150.15 68.2761 149.786 68.7181 149.786C69.1601 149.786 69.5241 150.15 69.5241 150.592V151.294C69.5241 151.736 69.1601 152.1 68.7181 152.1Z" fill="#81C347"/>
<path opacity="0.28" d="M104.078 153.296C103.636 153.296 103.272 152.932 103.272 152.49V122.512C103.272 122.07 103.636 121.706 104.078 121.706C104.52 121.706 104.884 122.07 104.884 122.512V152.464C104.884 152.932 104.52 153.296 104.078 153.296Z" fill="#26863F"/>
<path d="M136.11 98.488H133.77C133.484 98.488 133.25 98.254 133.25 97.968C133.25 97.682 133.484 97.448 133.77 97.448H136.11C136.396 97.448 136.63 97.682 136.63 97.968C136.63 98.254 136.396 98.488 136.11 98.488Z" fill="#4F4F59"/>
</g>
<defs>
<clipPath id="clip0_5824_150270">
<rect width="260" height="260" fill="white"/>
</clipPath>
</defs>
</svg>
